<svg xmlns="http://www.w3.org/2000/svg" xmlns:xlink="http://www.w3.org/1999/xlink" width="6912" zoomAndPan="magnify" viewBox="0 0 5184 863.999991" height="1152" preserveAspectRatio="xMidYMid meet" version="1.0"><path fill="#b87c7c" d="M 258.242188 654.347656 C 335.667969 654.347656 398.820312 615.625 424.433594 563.800781 L 410.730469 563.800781 C 385.703125 607.886719 337.460938 635.875 276.097656 635.875 C 175.4375 635.875 109.320312 560.835938 109.320312 439.3125 C 109.320312 319 174.835938 243.960938 277.289062 243.960938 C 354.144531 243.960938 407.164062 285.046875 407.164062 335.683594 L 420.261719 335.683594 C 420.261719 276.121094 351.75 225.484375 257.035156 225.484375 C 130.160156 225.484375 36.046875 319.601562 36.046875 439.917969 C 36.046875 563.214844 133.726562 654.347656 258.242188 654.347656 Z M 258.242188 654.347656 " fill-opacity="1" fill-rule="nonzero"/><path fill="#b87c7c" d="M 779.460938 648.386719 L 854.507812 648.386719 L 672.234375 231.449219 L 644.828125 231.449219 L 461.949219 648.386719 L 478.636719 648.386719 L 530.464844 529.863281 L 728.234375 529.863281 Z M 535.824219 517.9375 L 629.351562 303.523438 L 722.875 517.9375 Z M 535.824219 517.9375 " fill-opacity="1" fill-rule="nonzero"/><path fill="#b87c7c" d="M 1237.539062 603.109375 L 1190.484375 517.351562 C 1177.972656 491.136719 1150.566406 475.058594 1117.816406 467.90625 C 1191.089844 458.375 1243.503906 411.929688 1243.503906 350.574219 C 1243.503906 281.480469 1176.78125 231.449219 1089.808594 231.449219 L 918.859375 231.449219 L 918.859375 648.386719 L 989.734375 648.386719 L 989.734375 469.699219 L 1075.519531 469.699219 C 1089.222656 475.660156 1099.941406 486.96875 1106.492188 498.875 L 1166.0625 613.847656 C 1172.609375 626.34375 1182.746094 640.042969 1195.242188 648.386719 L 1273.875 648.386719 C 1261.378906 640.042969 1247.070312 621.585938 1237.539062 603.109375 Z M 989.734375 243.359375 L 1074.328125 243.359375 C 1132.105469 243.359375 1170.230469 285.652344 1170.230469 350.574219 C 1170.230469 415.496094 1132.105469 457.789062 1074.328125 457.789062 L 989.734375 457.789062 Z M 989.734375 243.359375 " fill-opacity="1" fill-rule="nonzero"/><path fill="#b87c7c" d="M 1683.109375 231.449219 L 1543.71875 467.90625 L 1404.933594 231.449219 L 1326.902344 231.449219 L 1326.902344 648.386719 L 1341.191406 648.386719 L 1341.191406 257.664062 L 1508.574219 543.546875 L 1518.105469 543.546875 L 1685.503906 257.664062 L 1685.503906 648.386719 L 1756.378906 648.386719 L 1756.378906 231.449219 Z M 1683.109375 231.449219 " fill-opacity="1" fill-rule="nonzero"/><path fill="#b87c7c" d="M 1928.539062 636.476562 L 1928.539062 442.898438 L 2104.867188 442.898438 L 2104.867188 430.988281 L 1928.539062 430.988281 L 1928.539062 243.359375 L 2152.527344 243.359375 L 2152.527344 231.449219 L 1857.664062 231.449219 L 1857.664062 648.386719 L 2158.472656 648.386719 L 2158.472656 636.476562 Z M 1928.539062 636.476562 " fill-opacity="1" fill-rule="nonzero"/><path fill="#b87c7c" d="M 2561.765625 231.449219 L 2561.765625 554.871094 L 2273.453125 231.449219 L 2228.777344 231.449219 L 2228.777344 648.386719 L 2243.066406 648.386719 L 2243.066406 298.75 L 2555.800781 648.386719 L 2576.054688 648.386719 L 2576.054688 231.449219 Z M 2561.765625 231.449219 " fill-opacity="1" fill-rule="nonzero"/><path fill="#b87c7c" d="M 3122.894531 243.359375 L 3122.894531 231.449219 L 2833.996094 231.449219 L 2833.996094 648.386719 L 2904.871094 648.386719 L 2904.871094 448.84375 L 3075.234375 448.84375 L 3075.234375 436.9375 L 2904.871094 436.9375 L 2904.871094 243.359375 Z M 3122.894531 243.359375 " fill-opacity="1" fill-rule="nonzero"/><path fill="#b87c7c" d="M 3382.613281 654.347656 C 3507.714844 654.347656 3602.425781 562.023438 3602.425781 439.917969 C 3602.425781 317.8125 3507.714844 225.484375 3382.613281 225.484375 C 3256.925781 225.484375 3162.816406 317.8125 3162.816406 439.917969 C 3162.816406 562.023438 3256.925781 654.347656 3382.613281 654.347656 Z M 3382.613281 642.421875 C 3293.863281 642.421875 3236.085938 562.023438 3236.085938 439.917969 C 3236.085938 317.8125 3293.863281 237.410156 3382.613281 237.410156 C 3470.777344 237.410156 3529.15625 317.8125 3529.15625 439.917969 C 3529.15625 562.023438 3470.777344 642.421875 3382.613281 642.421875 Z M 3382.613281 642.421875 " fill-opacity="1" fill-rule="nonzero"/><path fill="#b87c7c" d="M 4011.667969 231.449219 L 4011.667969 554.871094 L 3723.355469 231.449219 L 3678.679688 231.449219 L 3678.679688 648.386719 L 3692.96875 648.386719 L 3692.96875 298.75 L 4005.707031 648.386719 L 4025.957031 648.386719 L 4025.957031 231.449219 Z M 4011.667969 231.449219 " fill-opacity="1" fill-rule="nonzero"/><path fill="#b87c7c" d="M 4428.644531 231.449219 L 4089.691406 231.449219 L 4089.691406 243.359375 L 4223.722656 243.359375 L 4223.722656 648.386719 L 4294.613281 648.386719 L 4294.613281 243.359375 L 4428.644531 243.359375 Z M 4428.644531 231.449219 " fill-opacity="1" fill-rule="nonzero"/><path fill="#b87c7c" d="M 4563.265625 636.476562 L 4563.265625 442.898438 L 4739.59375 442.898438 L 4739.59375 430.988281 L 4563.265625 430.988281 L 4563.265625 243.359375 L 4787.25 243.359375 L 4787.25 231.449219 L 4492.390625 231.449219 L 4492.390625 648.386719 L 4793.199219 648.386719 L 4793.199219 636.476562 Z M 4563.265625 636.476562 " fill-opacity="1" fill-rule="nonzero"/><path fill="#b87c7c" d="M 4995.738281 654.347656 C 5087.472656 654.347656 5151.816406 606.695312 5151.816406 535.808594 C 5151.816406 463.148438 5085.09375 436.9375 5017.183594 410.738281 C 4959.992188 388.695312 4903.40625 365.464844 4903.40625 316.035156 C 4903.40625 272.554688 4948.082031 239.789062 5008.253906 239.789062 C 5073.183594 239.789062 5122.617188 279.6875 5122.617188 334.492188 L 5135.734375 334.492188 C 5135.734375 271.949219 5075.5625 225.484375 4997.53125 225.484375 C 4911.746094 225.484375 4848.007812 273.140625 4848.007812 342.835938 C 4848.007812 417.875 4920.675781 447.070312 4982.035156 472.078125 C 5041.605469 496.5 5094.019531 518.542969 5094.019531 565.589844 C 5094.019531 609.074219 5048.15625 639.457031 4984.414062 639.457031 C 4910.558594 639.457031 4853.367188 596.5625 4853.367188 538.792969 L 4840.269531 538.792969 C 4840.269531 604.316406 4909.367188 654.347656 4995.738281 654.347656 Z M 4995.738281 654.347656 " fill-opacity="1" fill-rule="nonzero"/></svg>