<svg xmlns="http://www.w3.org/2000/svg" xmlns:xlink="http://www.w3.org/1999/xlink" width="6912" zoomAndPan="magnify" viewBox="0 0 5184 863.999991" height="1152" preserveAspectRatio="xMidYMid meet" version="1.0"><path fill="#fafbf5" d="M 262.992188 582.851562 C 340.253906 582.851562 403.273438 544.203125 428.835938 492.484375 L 415.160156 492.484375 C 390.1875 536.480469 342.042969 564.414062 280.808594 564.414062 C 180.359375 564.414062 114.382812 489.523438 114.382812 368.246094 C 114.382812 248.171875 179.757812 173.28125 281.996094 173.28125 C 358.691406 173.28125 411.601562 214.289062 411.601562 264.820312 L 424.671875 264.820312 C 424.671875 205.378906 356.300781 154.84375 261.785156 154.84375 C 135.175781 154.84375 41.261719 248.773438 41.261719 368.847656 C 41.261719 491.898438 138.738281 582.851562 262.992188 582.851562 Z M 262.992188 582.851562 " fill-opacity="1" fill-rule="nonzero"/><path fill="#fafbf5" d="M 783.117188 576.902344 L 858.003906 576.902344 L 676.113281 160.796875 L 648.765625 160.796875 L 466.273438 576.902344 L 482.921875 576.902344 L 534.644531 458.617188 L 731.996094 458.617188 Z M 539.992188 446.714844 L 633.320312 232.726562 L 726.648438 446.714844 Z M 539.992188 446.714844 " fill-opacity="1" fill-rule="nonzero"/><path fill="#fafbf5" d="M 1240.234375 531.71875 L 1193.277344 446.128906 C 1180.789062 419.96875 1153.441406 403.917969 1120.761719 396.78125 C 1193.878906 387.269531 1246.183594 340.914062 1246.183594 279.683594 C 1246.183594 210.726562 1179.601562 160.796875 1092.8125 160.796875 L 922.21875 160.796875 L 922.21875 576.902344 L 992.945312 576.902344 L 992.945312 398.570312 L 1078.550781 398.570312 C 1092.226562 404.523438 1102.925781 415.804688 1109.460938 427.691406 L 1168.90625 542.433594 C 1175.441406 554.902344 1185.554688 568.578125 1198.023438 576.902344 L 1276.492188 576.902344 C 1264.023438 568.578125 1249.746094 550.15625 1240.234375 531.71875 Z M 992.945312 172.679688 L 1077.367188 172.679688 C 1135.019531 172.679688 1173.066406 214.890625 1173.066406 279.683594 C 1173.066406 344.476562 1135.019531 386.683594 1077.367188 386.683594 L 992.945312 386.683594 Z M 992.945312 172.679688 " fill-opacity="1" fill-rule="nonzero"/><path fill="#fafbf5" d="M 1684.867188 160.796875 L 1545.769531 396.78125 L 1407.273438 160.796875 L 1329.410156 160.796875 L 1329.410156 576.902344 L 1343.667969 576.902344 L 1343.667969 186.957031 L 1510.699219 472.273438 L 1520.210938 472.273438 L 1687.257812 186.957031 L 1687.257812 576.902344 L 1757.984375 576.902344 L 1757.984375 160.796875 Z M 1684.867188 160.796875 " fill-opacity="1" fill-rule="nonzero"/><path fill="#fafbf5" d="M 1929.785156 565.015625 L 1929.785156 371.824219 L 2105.742188 371.824219 L 2105.742188 359.9375 L 1929.785156 359.9375 L 1929.785156 172.679688 L 2153.300781 172.679688 L 2153.300781 160.796875 L 1859.058594 160.796875 L 1859.058594 576.902344 L 2159.234375 576.902344 L 2159.234375 565.015625 Z M 1929.785156 565.015625 " fill-opacity="1" fill-rule="nonzero"/><path fill="#fafbf5" d="M 2561.683594 160.796875 L 2561.683594 483.574219 L 2273.976562 160.796875 L 2229.390625 160.796875 L 2229.390625 576.902344 L 2243.652344 576.902344 L 2243.652344 227.960938 L 2555.730469 576.902344 L 2575.941406 576.902344 L 2575.941406 160.796875 Z M 2561.683594 160.796875 " fill-opacity="1" fill-rule="nonzero"/><path fill="#fafbf5" d="M 3121.632812 172.679688 L 3121.632812 160.796875 L 2833.339844 160.796875 L 2833.339844 576.902344 L 2904.066406 576.902344 L 2904.066406 377.757812 L 3074.074219 377.757812 L 3074.074219 365.875 L 2904.066406 365.875 L 2904.066406 172.679688 Z M 3121.632812 172.679688 " fill-opacity="1" fill-rule="nonzero"/><path fill="#fafbf5" d="M 3380.804688 582.851562 C 3505.644531 582.851562 3600.160156 490.710938 3600.160156 368.847656 C 3600.160156 246.984375 3505.644531 154.84375 3380.804688 154.84375 C 3255.382812 154.84375 3161.46875 246.984375 3161.46875 368.847656 C 3161.46875 490.710938 3255.382812 582.851562 3380.804688 582.851562 Z M 3380.804688 570.949219 C 3292.242188 570.949219 3234.585938 490.710938 3234.585938 368.847656 C 3234.585938 246.984375 3292.242188 166.746094 3380.804688 166.746094 C 3468.785156 166.746094 3527.039062 246.984375 3527.039062 368.847656 C 3527.039062 490.710938 3468.785156 570.949219 3380.804688 570.949219 Z M 3380.804688 570.949219 " fill-opacity="1" fill-rule="nonzero"/><path fill="#fafbf5" d="M 4008.542969 160.796875 L 4008.542969 483.574219 L 3720.835938 160.796875 L 3676.25 160.796875 L 3676.25 576.902344 L 3690.511719 576.902344 L 3690.511719 227.960938 L 4002.589844 576.902344 L 4022.800781 576.902344 L 4022.800781 160.796875 Z M 4008.542969 160.796875 " fill-opacity="1" fill-rule="nonzero"/><path fill="#fafbf5" d="M 4424.640625 160.796875 L 4086.402344 160.796875 L 4086.402344 172.679688 L 4220.148438 172.679688 L 4220.148438 576.902344 L 4290.894531 576.902344 L 4290.894531 172.679688 L 4424.640625 172.679688 Z M 4424.640625 160.796875 " fill-opacity="1" fill-rule="nonzero"/><path fill="#fafbf5" d="M 4558.980469 565.015625 L 4558.980469 371.824219 L 4734.9375 371.824219 L 4734.9375 359.9375 L 4558.980469 359.9375 L 4558.980469 172.679688 L 4782.496094 172.679688 L 4782.496094 160.796875 L 4488.253906 160.796875 L 4488.253906 576.902344 L 4788.429688 576.902344 L 4788.429688 565.015625 Z M 4558.980469 565.015625 " fill-opacity="1" fill-rule="nonzero"/><path fill="#fafbf5" d="M 4990.546875 582.851562 C 5082.085938 582.851562 5146.292969 535.292969 5146.292969 464.550781 C 5146.292969 392.035156 5079.714844 365.875 5011.945312 339.730469 C 4954.875 317.730469 4898.40625 294.542969 4898.40625 245.214844 C 4898.40625 201.816406 4942.988281 169.121094 5003.035156 169.121094 C 5067.828125 169.121094 5117.15625 208.9375 5117.15625 263.636719 L 5130.246094 263.636719 C 5130.246094 201.214844 5070.203125 154.84375 4992.335938 154.84375 C 4906.730469 154.84375 4843.125 202.402344 4843.125 271.960938 C 4843.125 346.851562 4915.640625 375.988281 4976.875 400.945312 C 5036.316406 425.316406 5088.621094 447.316406 5088.621094 494.273438 C 5088.621094 537.667969 5042.851562 567.992188 4979.246094 567.992188 C 4905.542969 567.992188 4848.472656 525.179688 4848.472656 467.527344 L 4835.402344 467.527344 C 4835.402344 532.921875 4904.359375 582.851562 4990.546875 582.851562 Z M 4990.546875 582.851562 " fill-opacity="1" fill-rule="nonzero"/><path fill="#fafbf5" d="M 762.214844 759.261719 C 753.082031 759.261719 744.773438 757.230469 737.308594 753.136719 C 729.878906 749.007812 724.066406 743.402344 719.902344 736.28125 C 715.722656 729.125 713.644531 721.109375 713.644531 712.199219 C 713.644531 703.308594 715.722656 695.308594 719.902344 688.1875 C 724.066406 681.035156 729.878906 675.425781 737.308594 671.332031 C 744.773438 667.203125 753.082031 665.140625 762.214844 665.140625 C 771.382812 665.140625 779.640625 667.1875 786.984375 671.265625 C 794.363281 675.304688 800.160156 680.929688 804.390625 688.121094 C 808.605469 695.273438 810.71875 703.308594 810.71875 712.199219 C 810.71875 721.109375 808.605469 729.160156 804.390625 736.347656 C 800.160156 743.503906 794.363281 749.128906 786.984375 753.207031 C 779.640625 757.246094 771.382812 759.261719 762.214844 759.261719 Z M 762.214844 750.523438 C 769.542969 750.523438 776.148438 748.871094 782.03125 745.570312 C 787.949219 742.265625 792.574219 737.691406 795.929688 731.808594 C 799.265625 725.941406 800.949219 719.40625 800.949219 712.199219 C 800.949219 705.011719 799.265625 698.472656 795.929688 692.59375 C 792.574219 686.726562 787.949219 682.132812 782.03125 678.832031 C 776.148438 675.53125 769.542969 673.878906 762.214844 673.878906 C 754.921875 673.878906 748.285156 675.53125 742.332031 678.832031 C 736.414062 682.132812 731.753906 686.726562 728.367188 692.59375 C 724.960938 698.472656 723.273438 705.011719 723.273438 712.199219 C 723.273438 719.40625 724.960938 725.941406 728.367188 731.808594 C 731.753906 737.691406 736.414062 742.265625 742.332031 745.570312 C 748.285156 748.871094 754.921875 750.523438 762.214844 750.523438 Z M 762.214844 750.523438 " fill-opacity="1" fill-rule="nonzero"/><path fill="#fafbf5" d="M 832.660156 665.964844 L 870.292969 665.964844 C 880.0625 665.964844 888.679688 667.945312 896.164062 671.882812 C 903.679688 675.789062 909.511719 681.238281 913.636719 688.257812 C 917.765625 695.242188 919.828125 703.222656 919.828125 712.199219 C 919.828125 721.195312 917.765625 729.195312 913.636719 736.210938 C 909.511719 743.195312 903.679688 748.648438 896.164062 752.585938 C 888.679688 756.492188 880.0625 758.433594 870.292969 758.433594 L 832.660156 758.433594 Z M 869.742188 749.972656 C 877.863281 749.972656 884.949219 748.371094 891.003906 745.15625 C 897.089844 741.957031 901.820312 737.5 905.175781 731.808594 C 908.511719 726.132812 910.199219 719.597656 910.199219 712.199219 C 910.199219 704.820312 908.511719 698.285156 905.175781 692.59375 C 901.820312 686.917969 897.089844 682.460938 891.003906 679.246094 C 884.949219 676.046875 877.863281 674.429688 869.742188 674.429688 L 842.429688 674.429688 L 842.429688 749.972656 Z M 869.742188 749.972656 " fill-opacity="1" fill-rule="nonzero"/><path fill="#fafbf5" d="M 982.15625 759.261719 C 973.023438 759.261719 964.71875 757.230469 957.253906 753.136719 C 949.820312 749.007812 944.007812 743.402344 939.84375 736.28125 C 935.664062 729.125 933.585938 721.109375 933.585938 712.199219 C 933.585938 703.308594 935.664062 695.308594 939.84375 688.1875 C 944.007812 681.035156 949.820312 675.425781 957.253906 671.332031 C 964.71875 667.203125 973.023438 665.140625 982.15625 665.140625 C 991.324219 665.140625 999.582031 667.1875 1006.925781 671.265625 C 1014.304688 675.304688 1020.101562 680.929688 1024.332031 688.121094 C 1028.546875 695.273438 1030.664062 703.308594 1030.664062 712.199219 C 1030.664062 721.109375 1028.546875 729.160156 1024.332031 736.347656 C 1020.101562 743.503906 1014.304688 749.128906 1006.925781 753.207031 C 999.582031 757.246094 991.324219 759.261719 982.15625 759.261719 Z M 982.15625 750.523438 C 989.484375 750.523438 996.089844 748.871094 1001.972656 745.570312 C 1007.890625 742.265625 1012.515625 737.691406 1015.871094 731.808594 C 1019.207031 725.941406 1020.890625 719.40625 1020.890625 712.199219 C 1020.890625 705.011719 1019.207031 698.472656 1015.871094 692.59375 C 1012.515625 686.726562 1007.890625 682.132812 1001.972656 678.832031 C 996.089844 675.53125 989.484375 673.878906 982.15625 673.878906 C 974.863281 673.878906 968.226562 675.53125 962.273438 678.832031 C 956.359375 682.132812 951.695312 686.726562 948.308594 692.59375 C 944.902344 698.472656 943.214844 705.011719 943.214844 712.199219 C 943.214844 719.40625 944.902344 725.941406 948.308594 731.808594 C 951.695312 737.691406 956.359375 742.265625 962.273438 745.570312 C 968.226562 748.871094 974.863281 750.523438 982.15625 750.523438 Z M 982.15625 750.523438 " fill-opacity="1" fill-rule="nonzero"/><path fill="#fafbf5" d="M 1129.863281 665.964844 L 1129.863281 758.433594 L 1121.816406 758.433594 L 1062.371094 683.371094 L 1062.371094 758.433594 L 1052.601562 758.433594 L 1052.601562 665.964844 L 1060.652344 665.964844 L 1120.230469 741.027344 L 1120.230469 665.964844 Z M 1129.863281 665.964844 " fill-opacity="1" fill-rule="nonzero"/><path fill="#fafbf5" d="M 1177.949219 674.429688 L 1145.476562 674.429688 L 1145.476562 665.964844 L 1220.191406 665.964844 L 1220.191406 674.429688 L 1187.71875 674.429688 L 1187.71875 758.433594 L 1177.949219 758.433594 Z M 1177.949219 674.429688 " fill-opacity="1" fill-rule="nonzero"/><path fill="#fafbf5" d="M 1276.203125 759.261719 C 1267.066406 759.261719 1258.761719 757.230469 1251.296875 753.136719 C 1243.867188 749.007812 1238.050781 743.402344 1233.890625 736.28125 C 1229.710938 729.125 1227.628906 721.109375 1227.628906 712.199219 C 1227.628906 703.308594 1229.710938 695.308594 1233.890625 688.1875 C 1238.050781 681.035156 1243.867188 675.425781 1251.296875 671.332031 C 1258.761719 667.203125 1267.066406 665.140625 1276.203125 665.140625 C 1285.371094 665.140625 1293.625 667.1875 1300.96875 671.265625 C 1308.347656 675.304688 1314.144531 680.929688 1318.375 688.121094 C 1322.589844 695.273438 1324.707031 703.308594 1324.707031 712.199219 C 1324.707031 721.109375 1322.589844 729.160156 1318.375 736.347656 C 1314.144531 743.503906 1308.347656 749.128906 1300.96875 753.207031 C 1293.625 757.246094 1285.371094 759.261719 1276.203125 759.261719 Z M 1276.203125 750.523438 C 1283.527344 750.523438 1290.132812 748.871094 1296.015625 745.570312 C 1301.933594 742.265625 1306.558594 737.691406 1309.914062 731.808594 C 1313.25 725.941406 1314.9375 719.40625 1314.9375 712.199219 C 1314.9375 705.011719 1313.25 698.472656 1309.914062 692.59375 C 1306.558594 686.726562 1301.933594 682.132812 1296.015625 678.832031 C 1290.132812 675.53125 1283.527344 673.878906 1276.203125 673.878906 C 1268.910156 673.878906 1262.269531 675.53125 1256.316406 678.832031 C 1250.402344 682.132812 1245.738281 686.726562 1242.351562 692.59375 C 1238.945312 698.472656 1237.261719 705.011719 1237.261719 712.199219 C 1237.261719 719.40625 1238.945312 725.941406 1242.351562 731.808594 C 1245.738281 737.691406 1250.402344 742.265625 1256.316406 745.570312 C 1262.269531 748.871094 1268.910156 750.523438 1276.203125 750.523438 Z M 1276.203125 750.523438 " fill-opacity="1" fill-rule="nonzero"/><path fill="#fafbf5" d="M 1346.644531 665.964844 L 1356.414062 665.964844 L 1356.414062 749.972656 L 1408.222656 749.972656 L 1408.222656 758.433594 L 1346.644531 758.433594 Z M 1346.644531 665.964844 " fill-opacity="1" fill-rule="nonzero"/><path fill="#fafbf5" d="M 1464.835938 759.261719 C 1455.703125 759.261719 1447.394531 757.230469 1439.929688 753.136719 C 1432.5 749.007812 1426.6875 743.402344 1422.523438 736.28125 C 1418.34375 729.125 1416.261719 721.109375 1416.261719 712.199219 C 1416.261719 703.308594 1418.34375 695.308594 1422.523438 688.1875 C 1426.6875 681.035156 1432.5 675.425781 1439.929688 671.332031 C 1447.394531 667.203125 1455.703125 665.140625 1464.835938 665.140625 C 1474.003906 665.140625 1482.261719 667.1875 1489.605469 671.265625 C 1496.984375 675.304688 1502.78125 680.929688 1507.011719 688.121094 C 1511.226562 695.273438 1513.339844 703.308594 1513.339844 712.199219 C 1513.339844 721.109375 1511.226562 729.160156 1507.011719 736.347656 C 1502.78125 743.503906 1496.984375 749.128906 1489.605469 753.207031 C 1482.261719 757.246094 1474.003906 759.261719 1464.835938 759.261719 Z M 1464.835938 750.523438 C 1472.164062 750.523438 1478.769531 748.871094 1484.652344 745.570312 C 1490.566406 742.265625 1495.195312 737.691406 1498.546875 731.808594 C 1501.886719 725.941406 1503.570312 719.40625 1503.570312 712.199219 C 1503.570312 705.011719 1501.886719 698.472656 1498.546875 692.59375 C 1495.195312 686.726562 1490.566406 682.132812 1484.652344 678.832031 C 1478.769531 675.53125 1472.164062 673.878906 1464.835938 673.878906 C 1457.542969 673.878906 1450.902344 675.53125 1444.953125 678.832031 C 1439.035156 682.132812 1434.375 686.726562 1430.988281 692.59375 C 1427.582031 698.472656 1425.894531 705.011719 1425.894531 712.199219 C 1425.894531 719.40625 1427.582031 725.941406 1430.988281 731.808594 C 1434.375 737.691406 1439.035156 742.265625 1444.953125 745.570312 C 1450.902344 748.871094 1457.542969 750.523438 1464.835938 750.523438 Z M 1464.835938 750.523438 " fill-opacity="1" fill-rule="nonzero"/><path fill="#fafbf5" d="M 1600.367188 712.199219 L 1609.792969 712.199219 L 1609.792969 747.496094 C 1605.472656 751.261719 1600.367188 754.167969 1594.449219 756.234375 C 1588.53125 758.261719 1582.304688 759.261719 1575.804688 759.261719 C 1566.585938 759.261719 1558.257812 757.246094 1550.828125 753.207031 C 1543.433594 749.128906 1537.636719 743.503906 1533.421875 736.347656 C 1529.191406 729.160156 1527.09375 721.109375 1527.09375 712.199219 C 1527.09375 703.308594 1529.191406 695.273438 1533.421875 688.121094 C 1537.636719 680.929688 1543.433594 675.304688 1550.828125 671.265625 C 1558.257812 667.1875 1566.617188 665.140625 1575.941406 665.140625 C 1582.992188 665.140625 1589.460938 666.277344 1595.34375 668.511719 C 1601.261719 670.765625 1606.230469 674.085938 1610.273438 678.488281 L 1604.21875 684.75 C 1596.925781 677.507812 1587.636719 673.878906 1576.355469 673.878906 C 1568.871094 673.878906 1562.113281 675.53125 1556.058594 678.832031 C 1550.039062 682.132812 1545.324219 686.726562 1541.886719 692.59375 C 1538.445312 698.472656 1536.726562 705.011719 1536.726562 712.199219 C 1536.726562 719.40625 1538.445312 725.925781 1541.886719 731.738281 C 1545.324219 737.570312 1550.019531 742.164062 1555.988281 745.5 C 1561.992188 748.855469 1568.734375 750.523438 1576.214844 750.523438 C 1585.710938 750.523438 1593.761719 748.148438 1600.367188 743.367188 Z M 1600.367188 712.199219 " fill-opacity="1" fill-rule="nonzero"/><path fill="#fafbf5" d="M 1637.390625 665.964844 L 1647.160156 665.964844 L 1647.160156 758.433594 L 1637.390625 758.433594 Z M 1651.769531 642.023438 L 1664.359375 642.023438 L 1642.964844 658.46875 L 1633.675781 658.46875 Z M 1651.769531 642.023438 " fill-opacity="1" fill-rule="nonzero"/><path fill="#fafbf5" d="M 1735.285156 733.734375 L 1683.75 733.734375 L 1672.675781 758.433594 L 1662.492188 758.433594 L 1704.734375 665.964844 L 1714.367188 665.964844 L 1756.679688 758.433594 L 1746.359375 758.433594 Z M 1731.707031 725.824219 L 1709.484375 676.148438 L 1687.328125 725.824219 Z M 1731.707031 725.824219 " fill-opacity="1" fill-rule="nonzero"/><path fill="#fafbf5" d="M 1864.605469 733.734375 L 1813.074219 733.734375 L 1801.996094 758.433594 L 1791.816406 758.433594 L 1834.058594 665.964844 L 1843.691406 665.964844 L 1886.003906 758.433594 L 1875.683594 758.433594 Z M 1861.027344 725.824219 L 1838.804688 676.148438 L 1816.652344 725.824219 Z M 1861.027344 725.824219 " fill-opacity="1" fill-rule="nonzero"/><path fill="#fafbf5" d="M 1978.171875 665.964844 L 1937.234375 758.433594 L 1927.601562 758.433594 L 1886.667969 665.964844 L 1897.191406 665.964844 L 1932.625 746.257812 L 1968.265625 665.964844 Z M 1978.171875 665.964844 " fill-opacity="1" fill-rule="nonzero"/><path fill="#fafbf5" d="M 2051.523438 733.734375 L 1999.992188 733.734375 L 1988.914062 758.433594 L 1978.734375 758.433594 L 2020.976562 665.964844 L 2030.609375 665.964844 L 2072.921875 758.433594 L 2062.601562 758.433594 Z M 2047.945312 725.824219 L 2025.722656 676.148438 L 2003.570312 725.824219 Z M 2047.945312 725.824219 " fill-opacity="1" fill-rule="nonzero"/><path fill="#fafbf5" d="M 2165.5 665.964844 L 2165.5 758.433594 L 2157.453125 758.433594 L 2098.007812 683.371094 L 2098.007812 758.433594 L 2088.238281 758.433594 L 2088.238281 665.964844 L 2096.289062 665.964844 L 2155.871094 741.027344 L 2155.871094 665.964844 Z M 2165.5 665.964844 " fill-opacity="1" fill-rule="nonzero"/><path fill="#fafbf5" d="M 2262.300781 749.972656 L 2262.300781 758.433594 L 2186.484375 758.433594 L 2186.484375 751.691406 L 2247.785156 674.429688 L 2187.445312 674.429688 L 2187.445312 665.964844 L 2260.71875 665.964844 L 2260.71875 672.707031 L 2199.554688 749.972656 Z M 2262.300781 749.972656 " fill-opacity="1" fill-rule="nonzero"/><path fill="#fafbf5" d="M 2339.628906 733.734375 L 2288.097656 733.734375 L 2277.019531 758.433594 L 2266.835938 758.433594 L 2309.082031 665.964844 L 2318.710938 665.964844 L 2361.023438 758.433594 L 2350.703125 758.433594 Z M 2336.050781 725.824219 L 2313.828125 676.148438 L 2291.671875 725.824219 Z M 2336.050781 725.824219 " fill-opacity="1" fill-rule="nonzero"/><path fill="#fafbf5" d="M 2376.34375 665.964844 L 2413.976562 665.964844 C 2423.746094 665.964844 2432.363281 667.945312 2439.84375 671.882812 C 2447.363281 675.789062 2453.191406 681.238281 2457.320312 688.257812 C 2461.449219 695.242188 2463.511719 703.222656 2463.511719 712.199219 C 2463.511719 721.195312 2461.449219 729.195312 2457.320312 736.210938 C 2453.191406 743.195312 2447.363281 748.648438 2439.84375 752.585938 C 2432.363281 756.492188 2423.746094 758.433594 2413.976562 758.433594 L 2376.34375 758.433594 Z M 2413.425781 749.972656 C 2421.542969 749.972656 2428.632812 748.371094 2434.683594 745.15625 C 2440.773438 741.957031 2445.503906 737.5 2448.859375 731.808594 C 2452.195312 726.132812 2453.882812 719.597656 2453.882812 712.199219 C 2453.882812 704.820312 2452.195312 698.285156 2448.859375 692.59375 C 2445.503906 686.917969 2440.773438 682.460938 2434.683594 679.246094 C 2428.632812 676.046875 2421.542969 674.429688 2413.425781 674.429688 L 2386.113281 674.429688 L 2386.113281 749.972656 Z M 2413.425781 749.972656 " fill-opacity="1" fill-rule="nonzero"/><path fill="#fafbf5" d="M 2543.453125 733.734375 L 2491.921875 733.734375 L 2480.84375 758.433594 L 2470.664062 758.433594 L 2512.90625 665.964844 L 2522.539062 665.964844 L 2564.851562 758.433594 L 2554.53125 758.433594 Z M 2539.875 725.824219 L 2517.652344 676.148438 L 2495.5 725.824219 Z M 2539.875 725.824219 " fill-opacity="1" fill-rule="nonzero"/><path fill="#fafbf5" d="M 2937.917969 665.964844 L 2937.917969 758.433594 L 2928.492188 758.433594 L 2928.492188 684.472656 L 2892.164062 746.667969 L 2887.554688 746.667969 L 2851.226562 684.886719 L 2851.226562 758.433594 L 2841.871094 758.433594 L 2841.871094 665.964844 L 2849.921875 665.964844 L 2890.101562 734.492188 L 2929.867188 665.964844 Z M 2937.917969 665.964844 " fill-opacity="1" fill-rule="nonzero"/><path fill="#fafbf5" d="M 3033.382812 749.972656 L 3033.382812 758.433594 L 2968.023438 758.433594 L 2968.023438 665.964844 L 3031.386719 665.964844 L 3031.386719 674.429688 L 2977.792969 674.429688 L 2977.792969 707.316406 L 3025.609375 707.316406 L 3025.609375 715.640625 L 2977.792969 715.640625 L 2977.792969 749.972656 Z M 3033.382812 749.972656 " fill-opacity="1" fill-rule="nonzero"/><path fill="#fafbf5" d="M 3056.398438 665.964844 L 3094.03125 665.964844 C 3103.800781 665.964844 3112.417969 667.945312 3119.898438 671.882812 C 3127.417969 675.789062 3133.246094 681.238281 3137.375 688.257812 C 3141.503906 695.242188 3143.566406 703.222656 3143.566406 712.199219 C 3143.566406 721.195312 3141.503906 729.195312 3137.375 736.210938 C 3133.246094 743.195312 3127.417969 748.648438 3119.898438 752.585938 C 3112.417969 756.492188 3103.800781 758.433594 3094.03125 758.433594 L 3056.398438 758.433594 Z M 3093.480469 749.972656 C 3101.597656 749.972656 3108.683594 748.371094 3114.738281 745.15625 C 3120.828125 741.957031 3125.558594 737.5 3128.914062 731.808594 C 3132.25 726.132812 3133.933594 719.597656 3133.933594 712.199219 C 3133.933594 704.820312 3132.25 698.285156 3128.914062 692.59375 C 3125.558594 686.917969 3120.828125 682.460938 3114.738281 679.246094 C 3108.683594 676.046875 3101.597656 674.429688 3093.480469 674.429688 L 3066.167969 674.429688 L 3066.167969 749.972656 Z M 3093.480469 749.972656 " fill-opacity="1" fill-rule="nonzero"/><path fill="#fafbf5" d="M 3165.507812 665.964844 L 3175.277344 665.964844 L 3175.277344 758.433594 L 3165.507812 758.433594 Z M 3165.507812 665.964844 " fill-opacity="1" fill-rule="nonzero"/><path fill="#fafbf5" d="M 3245.582031 759.261719 C 3236.398438 759.261719 3228.125 757.246094 3220.746094 753.207031 C 3213.398438 749.128906 3207.636719 743.503906 3203.476562 736.347656 C 3199.296875 729.160156 3197.214844 721.109375 3197.214844 712.199219 C 3197.214844 703.308594 3199.296875 695.273438 3203.476562 688.121094 C 3207.636719 680.929688 3213.417969 675.304688 3220.8125 671.265625 C 3228.242188 667.1875 3236.515625 665.140625 3245.648438 665.140625 C 3252.53125 665.140625 3258.878906 666.292969 3264.707031 668.582031 C 3270.523438 670.886719 3275.457031 674.222656 3279.5 678.625 L 3273.308594 684.886719 C 3266.050781 677.558594 3256.933594 673.878906 3245.925781 673.878906 C 3238.632812 673.878906 3231.976562 675.5625 3225.972656 678.902344 C 3220.003906 682.253906 3215.328125 686.847656 3211.9375 692.660156 C 3208.53125 698.492188 3206.847656 705.011719 3206.847656 712.199219 C 3206.847656 719.40625 3208.53125 725.925781 3211.9375 731.738281 C 3215.328125 737.570312 3220.003906 742.164062 3225.972656 745.5 C 3231.976562 748.855469 3238.632812 750.523438 3245.925781 750.523438 C 3257.019531 750.523438 3266.152344 746.839844 3273.308594 739.445312 L 3279.5 745.636719 C 3275.457031 750.039062 3270.503906 753.410156 3264.640625 755.75 C 3258.757812 758.089844 3252.410156 759.261719 3245.582031 759.261719 Z M 3245.582031 759.261719 " fill-opacity="1" fill-rule="nonzero"/><path fill="#fafbf5" d="M 3300.378906 665.964844 L 3310.148438 665.964844 L 3310.148438 758.433594 L 3300.378906 758.433594 Z M 3300.378906 665.964844 " fill-opacity="1" fill-rule="nonzero"/><path fill="#fafbf5" d="M 3417.535156 665.964844 L 3417.535156 758.433594 L 3409.488281 758.433594 L 3350.042969 683.371094 L 3350.042969 758.433594 L 3340.273438 758.433594 L 3340.273438 665.964844 L 3348.324219 665.964844 L 3407.902344 741.027344 L 3407.902344 665.964844 Z M 3417.535156 665.964844 " fill-opacity="1" fill-rule="nonzero"/><path fill="#fafbf5" d="M 3505.667969 733.734375 L 3454.136719 733.734375 L 3443.058594 758.433594 L 3432.875 758.433594 L 3475.121094 665.964844 L 3484.75 665.964844 L 3527.0625 758.433594 L 3516.742188 758.433594 Z M 3502.089844 725.824219 L 3479.867188 676.148438 L 3457.714844 725.824219 Z M 3502.089844 725.824219 " fill-opacity="1" fill-rule="nonzero"/><path fill="#fafbf5" d="M 3642.351562 749.972656 L 3642.351562 758.433594 L 3576.992188 758.433594 L 3576.992188 665.964844 L 3640.355469 665.964844 L 3640.355469 674.429688 L 3586.761719 674.429688 L 3586.761719 707.316406 L 3634.578125 707.316406 L 3634.578125 715.640625 L 3586.761719 715.640625 L 3586.761719 749.972656 Z M 3642.351562 749.972656 " fill-opacity="1" fill-rule="nonzero"/><path fill="#fafbf5" d="M 3690.820312 759.261719 C 3683.976562 759.261719 3677.40625 758.160156 3671.074219 755.957031 C 3664.78125 753.757812 3659.929688 750.847656 3656.488281 747.21875 L 3660.34375 739.652344 C 3663.679688 743.003906 3668.132812 745.742188 3673.6875 747.839844 C 3679.226562 749.902344 3684.9375 750.933594 3690.820312 750.933594 C 3699.109375 750.933594 3705.335938 749.421875 3709.464844 746.394531 C 3713.59375 743.332031 3715.65625 739.359375 3715.65625 734.492188 C 3715.65625 730.828125 3714.523438 727.886719 3712.285156 725.683594 C 3710.035156 723.484375 3707.28125 721.796875 3704.03125 720.59375 C 3700.761719 719.40625 3696.257812 718.101562 3690.476562 716.671875 C 3683.492188 714.933594 3677.953125 713.265625 3673.828125 711.648438 C 3669.699219 710 3666.136719 707.503906 3663.164062 704.152344 C 3660.222656 700.8125 3658.757812 696.273438 3658.757812 690.527344 C 3658.757812 685.851562 3659.964844 681.617188 3662.40625 677.800781 C 3664.882812 673.945312 3668.667969 670.886719 3673.757812 668.582031 C 3678.882812 666.292969 3685.246094 665.140625 3692.816406 665.140625 C 3698.078125 665.140625 3703.238281 665.878906 3708.296875 667.34375 C 3713.386719 668.820312 3717.789062 670.832031 3721.503906 673.398438 L 3718.203125 681.171875 C 3714.300781 678.609375 3710.152344 676.683594 3705.75 675.390625 C 3701.347656 674.121094 3697.03125 673.464844 3692.816406 673.464844 C 3684.730469 673.464844 3678.644531 675.046875 3674.515625 678.210938 C 3670.421875 681.34375 3668.390625 685.351562 3668.390625 690.253906 C 3668.390625 693.96875 3669.507812 696.960938 3671.761719 699.195312 C 3674 701.449219 3676.820312 703.171875 3680.226562 704.355469 C 3683.613281 705.5625 3688.171875 706.832031 3693.917969 708.210938 C 3700.660156 709.914062 3706.113281 711.582031 3710.292969 713.230469 C 3714.503906 714.847656 3718.066406 717.292969 3720.957031 720.59375 C 3723.878906 723.894531 3725.359375 728.367188 3725.359375 734.011719 C 3725.359375 738.6875 3724.085938 742.953125 3721.574219 746.808594 C 3719.046875 750.625 3715.191406 753.652344 3710.015625 755.890625 C 3704.820312 758.140625 3698.421875 759.261719 3690.820312 759.261719 Z M 3690.820312 759.261719 " fill-opacity="1" fill-rule="nonzero"/><path fill="#fafbf5" d="M 3764.5625 674.429688 L 3732.085938 674.429688 L 3732.085938 665.964844 L 3806.804688 665.964844 L 3806.804688 674.429688 L 3774.332031 674.429688 L 3774.332031 758.433594 L 3764.5625 758.433594 Z M 3764.5625 674.429688 " fill-opacity="1" fill-rule="nonzero"/><path fill="#fafbf5" d="M 3887.789062 749.972656 L 3887.789062 758.433594 L 3822.425781 758.433594 L 3822.425781 665.964844 L 3885.792969 665.964844 L 3885.792969 674.429688 L 3832.199219 674.429688 L 3832.199219 707.316406 L 3880.015625 707.316406 L 3880.015625 715.640625 L 3832.199219 715.640625 L 3832.199219 749.972656 Z M 3863.777344 642.023438 L 3876.367188 642.023438 L 3854.96875 658.46875 L 3845.683594 658.46875 Z M 3863.777344 642.023438 " fill-opacity="1" fill-rule="nonzero"/><path fill="#fafbf5" d="M 3928.757812 674.429688 L 3896.285156 674.429688 L 3896.285156 665.964844 L 3971 665.964844 L 3971 674.429688 L 3938.527344 674.429688 L 3938.527344 758.433594 L 3928.757812 758.433594 Z M 3928.757812 674.429688 " fill-opacity="1" fill-rule="nonzero"/><path fill="#fafbf5" d="M 3986.625 665.964844 L 3996.394531 665.964844 L 3996.394531 758.433594 L 3986.625 758.433594 Z M 3986.625 665.964844 " fill-opacity="1" fill-rule="nonzero"/><path fill="#fafbf5" d="M 4066.699219 759.261719 C 4057.511719 759.261719 4049.238281 757.246094 4041.859375 753.207031 C 4034.515625 749.128906 4028.753906 743.503906 4024.589844 736.347656 C 4020.410156 729.160156 4018.332031 721.109375 4018.332031 712.199219 C 4018.332031 703.308594 4020.410156 695.273438 4024.589844 688.121094 C 4028.753906 680.929688 4034.535156 675.304688 4041.929688 671.265625 C 4049.359375 667.1875 4057.632812 665.140625 4066.765625 665.140625 C 4073.648438 665.140625 4079.992188 666.292969 4085.824219 668.582031 C 4091.636719 670.886719 4096.574219 674.222656 4100.617188 678.625 L 4094.425781 684.886719 C 4087.164062 677.558594 4078.050781 673.878906 4067.042969 673.878906 C 4059.75 673.878906 4053.09375 675.5625 4047.089844 678.902344 C 4041.121094 682.253906 4036.441406 686.847656 4033.054688 692.660156 C 4029.648438 698.492188 4027.964844 705.011719 4027.964844 712.199219 C 4027.964844 719.40625 4029.648438 725.925781 4033.054688 731.738281 C 4036.441406 737.570312 4041.121094 742.164062 4047.089844 745.5 C 4053.09375 748.855469 4059.75 750.523438 4067.042969 750.523438 C 4078.136719 750.523438 4087.269531 746.839844 4094.425781 739.445312 L 4100.617188 745.636719 C 4096.574219 750.039062 4091.621094 753.410156 4085.753906 755.75 C 4079.871094 758.089844 4073.527344 759.261719 4066.699219 759.261719 Z M 4066.699219 759.261719 " fill-opacity="1" fill-rule="nonzero"/><path fill="#fafbf5" d="M 4179.496094 733.734375 L 4127.964844 733.734375 L 4116.886719 758.433594 L 4106.703125 758.433594 L 4148.945312 665.964844 L 4158.578125 665.964844 L 4200.890625 758.433594 L 4190.570312 758.433594 Z M 4175.917969 725.824219 L 4153.695312 676.148438 L 4131.539062 725.824219 Z M 4175.917969 725.824219 " fill-opacity="1" fill-rule="nonzero"/><path fill="#fafbf5" d="M 2692.640625 646.535156 L 2704.265625 646.535156 L 2704.265625 795.902344 L 2692.640625 795.902344 Z M 2692.640625 646.535156 " fill-opacity="1" fill-rule="nonzero"/></svg>